<?xml version="1.0" encoding="UTF-8"?>
<svg id="Layer_1" data-name="Layer 1" xmlns="http://www.w3.org/2000/svg" viewBox="0 0 2051.78 2033.15">
  <defs>
    <style>
      .cls-1 {
        fill: none;
        stroke: #000;
        stroke-miterlimit: 10;
        stroke-width: 4px;
      }
    </style>
  </defs>
  <g id="Layer_3" data-name="Layer 3">
    <path class="cls-1" d="M1153.63,1055.98c.84,55.31,1.63,94.53,2.7,105.17.18,1.78.8,7.12-1.82,12.72-2.4,5.12-6.46,8.21-9.14,9.88h-52.14c8.17-8.05,16.34-16.1,24.52-24.15,1.66-1.64,2.6-3.96,2.59-6.38-.16-38.8-.4-96.67-.4-96.67"/>
    <path class="cls-1" d="M1119.5,952.97c-.19-57.76-.64-115.52-.7-173.28,0-7.21-.13-14.42-.19-21.62,0-.34-.02-1.4-.33-2.71-.51-2.18-1.61-4.18-3.18-5.73-5.54-5.48-11.08-10.97-16.62-16.45h41.84c3,0,5.72,1.29,7.71,3.38,2.78,2.93,3.16,6.78,3.29,8.2.66,7.72,1.38,91.98,1.81,207.04"/>
    <path class="cls-1" d="M1264.22,1184.99c-3.97.34-38.13,2.8-62.49-20.43-21.34-20.34-23.8-49.79-25.34-68.34-.3-3.62-.45-7.02-.48-10.15-.09-7.23,5.85-13.13,13.21-13.07l59.08.52c-11.03,8.06-22.05,16.12-33.08,24.18-.41,2.33-3.6,22.86,11.73,38.88,10.33,10.79,25.09,15.38,38.01,13.84,26.83-3.2,41.36-32.24,45.14-51.26.74-3.73,6.62-34.19-11.09-49.92-15.76-14.01-33-1.06-55.5-11.06-28.28-12.58-52.5-55.92-38.61-95.6,9.46-27.02,36.29-51.5,67.62-51.44,32.05.06,63.29,25.8,72.51,63.15,2.85,11.52-6.04,22.63-18.1,22.59-11.47-.04-22.93-.08-34.4-.13l13.52-10.28c2.5-1.9,3.68-5.08,2.89-8.08-5.83-22.31-21.36-37-36.34-37.2-6.15-.08-15.99,2.24-23.14,9.54-5.76,5.89-7.41,12.65-8.21,16.14-4.92,21.36,3.73,62.9,32.84,77.57,23.38,11.78,37.58-5.07,55.27,6.24,23.52,15.03,24.68,61.63,11.15,94.33-1,2.43-23.98,55.49-76.21,59.98h.02Z"/>
    <path class="cls-1" d="M1726.58,1052.33c-3.9,17.55-5.85,26.32-12.33,35.06-18.8,25.36-53.75,27.57-65.18,27.82-.38-74.62-.77-149.23-1.15-223.85-21.14,13.68-29.78,24.23-33.66,27.17-.8.61-2.32,1.81-3.48,3.85-1.74,3.06-1.84,6.16-1.58,7.17,7.52,28.78,14.5,67.63,13.95,113.71-.55,46.09-8.44,84.6-16.46,112.72-2.57,7.59-5.15,15.19-7.72,22.78-1.49,4.4,1.85,8.95,6.57,8.95,22.52,0,33.53-.51,56.02-.51,2.63,0,4.53-2.54,3.69-4.99-2.43-7.06-5.07-12.91-6.35-18.49-3.17-13.83,27.62-43.11,53.69-39.7,31.15,4.08,47.46,55.66,43.43,92.1-.82,7.45-4.26,38.55-28.34,53.87-3.05,1.94-20.4,12.23-41,5.54-12.97-4.21-20.86-13.11-25.15-19.65-2.43-3.71-.75-8.68,3.46-10.22,9.16-3.37,18.33-6.75,27.49-10.12h-77.17c-6.12,0-10.38,6.03-8.2,11.66,21.21,54.76,82.19,81.24,129.4,63.32,58.33-22.14,64.93-100.34,56.65-119.3-3.01-6.9-10.09-19.4-19-42.1-3.15-8.04-6.27-17.68-9.26-30.35h0c-.25-22.29-.31-44.58-.7-66.87"/>
    <path class="cls-1" d="M1766.76,960.48c.76-5.37,1.74-10.33,1.81-10.65,2.74-13.7,6.58-24.72,9.69-32.43h0c3.52-8.68,7.32-16.03,10.73-21.94,1.25-2.16-.34-4.84-2.87-4.84h-83.74c5.78,5.74,13.92,15.19,19.82,28.63,7.62,17.36,7.66,32.63,7.6,41.3"/>
    <path class="cls-1" d="M828.13,1077.94c1.34,7.09,3.02,21.54-3.3,37.37-5.92,14.82-22.2,38.87-45.43,38.74-25.76-.15-40.24-26.76-42.67-31.23-15.87-29.17-1.97-59.6,0-63.74,12.99-.75,32.61-3.65,53.51-14.19,13-6.56,35.3-17.81,47.32-41.87,12.07-24.15,8.35-50.32,8.06-52.23-2.49-16.12-9.41-28.1-4.45-45.3,1.84-6.37,4.66-11.19,6.63-14.14h-141.34c-5.19,0-7.78,6.28-3.98,9.75,8.2,7.5,12.44,14.73,14.83,20.1,8.31,18.63,3.23,34.81-10.5,97.26-5.2,23.66-8.22,35.53-8.94,41.92-2.94,26.05-5.82,51.64,6.86,75.66,11.5,21.77,39.37,48.94,76.31,47.03,49.3-2.56,70.98-54.66,71.94-57.08,3.72-9.37,5.18-18.02,5.72-24.8.16-1.97.98-3.82,2.35-5.26l17.37-18.22-50.29.24h0ZM758.19,936.12c.85-4.98,1.69-9.96,2.54-14.94h50.97c2.33,6.15,12.23,34.39-1.94,63.28-3.08,6.28-10.79,21.51-28.88,31.25-15.9,8.56-31.12,8.2-37.53,7.69,4.95-29.09,9.89-58.19,14.84-87.28h0Z"/>
    <path class="cls-1" d="M1452.81,1008.77c9.89-4.77,32.59-17.34,49.5-43.66,13.29-20.69,17.17-33.95,18.33-44.09.42-3.64,2.55-6.87,5.72-8.79,11.92-7.21,23.85-14.41,35.77-21.62h-70.51c-4.47,0-7.65,4.33-6.19,8.49,1.71,4.88,2.58,9.38,2.97,13.35,4.89,49.88-59.55,77.17-62.52,78.83l-1.05-249.87c-.02-4.55-3.78-8.24-8.41-8.24h-48.23c6.04,5.48,12.09,10.97,18.13,16.45,1.71,1.55,2.91,3.55,3.47,5.73.34,1.32.35,2.37.36,2.72.07,7.21.2,14.42.21,21.63,0,5.64.32,77.42,1.67,373.59.01,2.43-1.02,4.76-2.84,6.4l-26.74,24.14h56.9c5.54,0,10.01-4.44,9.97-9.88-.63-45.65-1.26-91.3-1.89-136.95,23.34,37.66,46.69,75.32,70.03,112.97,1.76,2.84,1.72,6.43-.12,9.23-5.38,8.21-10.76,16.42-16.15,24.63h98.23c-13.68-9.45-27.36-18.91-41.05-28.36-28.52-48.9-57.04-97.81-85.57-146.71h.01Z"/>
    <path class="cls-1" d="M915.23,956.14c-23.01.18-46.02.35-69.03.53"/>
    <path class="cls-1" d="M1010.05,955.82c-14.29.04-29.03.11-61.58.22"/>
    <path class="cls-1" d="M1199.71,954.96c-40.21.57-72.88.64-131.28.74-6.9.01-15.83.02-22.15.03"/>
    <path class="cls-1" d="M1307.61,953.39c-28.47.33-51.95.67-68.22.92"/>
    <path class="cls-1" d="M1389.87,952.71c-19.53.16-35.34.24-45.56.28"/>
    <path class="cls-1" d="M1477.87,952.03c-17.87.06-32.07.18-51.83.35"/>
    <path class="cls-1" d="M1614.68,953.16c-25.79-.74-60.91-1.4-103.82-1.17"/>
    <path class="cls-1" d="M1648.4,1052.27c39.2.28,48.21.65,76.32.71,21.71.04,32.79.05,44.01-.49,14.01-.68,30.29-1.99,48.45-4.43,71.94-9.67,129.6-32.01,167.56-49.72-40.36-11.51-98.54-25.52-169.43-33.52-21.28-2.4-42.91-4.17-89.99-6.3h0c-19.3-1.61-46.63-2.91-76.5-4.16"/>
    <path class="cls-1" d="M1479.72,1053.06c33.84-.43,50.76-.65,67-.74,18.08-.1,42.45-.3,74.87-.19"/>
    <path class="cls-1" d="M1345.41,1055.02c22.32-.34,43.8-.66,44.95-.67"/>
    <path class="cls-1" d="M1045.17,1056.62c11.43,0,20.07.09,23.75.13,90.64.92,234.31-1.09,234.31-1.09"/>
    <path class="cls-1" d="M948.47,1057.98c5.24-.12,12.73-.29,21.73-.47h0c13.23-.15,30.62-.52,39.84-.67"/>
    <path class="cls-1" d="M737,1059.34c44.91.05,79.03-.05,102.5-.16,18.53-.09,40.12-.23,66.79-.6"/>
    <path class="cls-1" d="M717.6,955.51c-73.31-.52-133.36-1.48-173.76-2.24-1.03-.67-2.07-1.33-3.1-2-.55-22.88-1.11-44.97-1.66-65.4-.01-.17-4.68-79.34,27.31-105.14,8.82-7.12,18.11-10.57,24.74-12.39,2.88-.79,27.89-5.53,35.77,7.46,1.01,1.66,4.07,7.47.67,17.8-7.04,30.74-14.08,61.47-21.12,92.21-.91,3.99,2.13,7.79,6.29,7.87,21.41.03,42.83.07,64.24.1-6.3-3.59-16.11-10.46-22.22-22.29-7.08-13.72-6.1-28.15-1.82-46.36,7.71-32.82,22.46-62.21,36.52-84.96,2.94-4.76-.55-10.85-6.22-10.85h-326.96c-5.67,0-9.16,6.09-6.22,10.85,14.06,22.75,28.81,52.14,36.52,84.96,4.28,18.21,5.26,32.64-1.82,46.36-6.1,11.83-15.92,18.7-22.22,22.29,21.41-.03,42.83-.07,64.24-.1,4.16-.07,7.2-3.88,6.29-7.87-7.04-30.74-14.08-61.47-21.12-92.21-3.4-10.33-.34-16.14.67-17.8,7.88-12.99,32.89-8.25,35.77-7.46,6.64,1.82,15.92,5.28,24.74,12.39,31.98,25.8,27.32,104.97,27.31,105.14-.53,19.4-1.05,40.28-1.58,61.93-4.46,1.47-8.93,2.93-13.39,4.4-20.65-.12-40.6-.25-61.24-.37l-19.66-6.68c-5.09-1.73-10.38-1.48-15.38.75-4.01,1.45-10.56,3.81-14.57,5.26-52.6,16.19-81.82,9.87-99.04,0-6.06-3.47-26.26-16.33-51.27-10.69-7.31,1.65-13.17,4.45-16.99,6.58-26.77-7.2-53.55-14.41-80.32-21.61-5.65,2.59-14.91,8.32-22.34,21.51-15.82,28.1-16.86,78.61,1.06,105.21,9.53,14.15,21.6,17.36,28.42,18.13,22.67-7.17,45.34-14.33,68-21.5,3.3,2.35,8.48,5.58,15.31,8.05,24.97,9.03,49.17-.37,58.63-3.54,20.22-6.77,52.17-11.53,102.34-.62,4.88,2.11,16.03,5.47,19.05,6.3,3.63,1,5.42,1.24,7.27,1.22,3.13-.04,5.51-.82,7.92-1.7,3.65-1.33,8.74-3.4,14.86-6.59,22.05.02,44.11.04,66.16.07.9.64,1.8,1.27,2.7,1.91-.72,30.45-1.44,60.2-2.15,87.43-.18,6.99-3.19,13.61-8.37,18.41-6.71,6.24-13.43,12.47-20.14,18.71-2.16,2-.71,5.57,2.25,5.57h104.03c2.98,0,4.42-3.59,2.23-5.59-6.81-6.22-13.61-12.45-20.42-18.67-5.26-4.81-8.33-11.49-8.52-18.55-.69-26.16-1.38-54.64-2.07-83.82,50.69.59,101.38,1.19,152.07,1.78"/>
    <path class="cls-1" d="M1060.54,1172.03c-1.21-.74-1.94-1.67-2.1-2.66-2.96-19.01-17.52-114.82-10.75-128.49,1.11-2.24,2.65-4.33,2.65-4.33,8.55-5.98,17.09-11.96,25.64-17.95h-28.42c-.16-15.26-.32-30.53-.47-45.79-.24-23.18-4.29-39.02-15.89-54.84-3.61-4.92-12.6-16.88-28.82-23.52-21.85-8.94-53.82-7.17-72.42,13.52-18.32,20.38-19.36,54.91-.19,82.1,5.92,8.39,18.28,9.1,25.16,1.42,6.54-7.3,13.08-14.6,19.62-21.9l-14.48,2.71c-1.34.25-2.69.11-3.91-.37,0,0-1.7-.68-3.04-2.41-1.79-2.31-16.71-30.15,1.2-45.12,10.07-8.41,24.6-7.83,33.7-3.21,5.25,2.66,8.76,6.7,11.59,9.95,1.81,2.08,6.5,7.8,9.81,16.55,3.65,9.64,3.68,17.8,3.63,25.12-.11,17.28-.51,32.56-1.02,45.79-27.56.11-55.11.23-82.67.34,1.73,1.95,3.47,3.91,5.2,5.86,2.94,3.32,2.42,8.37-1.14,11.04-7.02,5.26-15.01,12.31-22.68,21.56-15.94,19.23-29.65,45.08-25.71,68.17,1.08,6.34,4.56,20.45,16.59,32.38,16.61,16.47,38.12,17.45,45.5,17.79,37.32,1.71,62.77-24.81,67.01-29.37.29,9.69-1.02,22.31-1.03,32.55,0,1.71,2.53,3.08,5.65,3.08h58.09l-16.28-9.98h-.02ZM1006.78,1139.65c-13.28,13.2-32.26,15.75-38.4,16.02-7.31.32-31.93,1.41-44.87-15.59-7.97-10.48-7.56-22.62-7.37-28,1.01-29.34,25.26-53.5,47.82-64.65,17.19-8.5,34.34-10.29,47.84-9.8.41,31.42.83,57.59,1.24,88.37.06,4.76-2.08,9.48-6.27,13.65h.01Z"/>
  </g>
  <path class="cls-1" d="M817.24,956.22c-20.77-.12-41.54-.24-62.32-.36"/>
</svg>